<svg xmlns="http://www.w3.org/2000/svg" viewBox="0 0 800 800" width="800" height="800" style="background:white; font-family:Arial, sans-serif;">
<defs>
    <marker id="arrow" markerWidth="10" markerHeight="7" refX="9" refY="3.5" orient="auto">
      <polygon points="0 0, 10 3.5, 0 7" fill="#4dabf7" />
    </marker>
  </defs>
<polygon points="400.0,20.0 742.3803458662553,268.7538820250189 611.6026908252903,671.2461179749811 188.3973091747097,671.2461179749811 57.61965413374469,268.753882025019" fill="#e9ecef" stroke="#ced4da" stroke-width="1.5" stroke-dasharray="5,5"/>
<polygon points="400.0,140.0 628.2535639108369,305.83592135001265 541.0684605501935,574.1640786499875 258.93153944980645,574.1640786499875 171.74643608916313,305.83592135001265" fill="#f0f2f5" stroke="#ced4da" stroke-width="1.5" stroke-dasharray="5,5"/>
<polygon points="400.0,260.0 514.1267819554184,342.9179606750063 470.5342302750968,477.08203932499373 329.4657697249032,477.08203932499373 285.87321804458156,342.9179606750063" fill="#f8f9fa" stroke="#ced4da" stroke-width="1.5" stroke-dasharray="5,5"/>
<line x1="400" y1="380" x2="400.0" y2="20.0" stroke="#ced4da" stroke-width="1.5" stroke-dasharray="5,5"/>
<line x1="400" y1="380" x2="742.3803458662553" y2="268.7538820250189" stroke="#ced4da" stroke-width="1.5" stroke-dasharray="5,5"/>
<line x1="400" y1="380" x2="611.6026908252903" y2="671.2461179749811" stroke="#ced4da" stroke-width="1.5" stroke-dasharray="5,5"/>
<line x1="400" y1="380" x2="188.3973091747097" y2="671.2461179749811" stroke="#ced4da" stroke-width="1.5" stroke-dasharray="5,5"/>
<line x1="400" y1="380" x2="57.61965413374469" y2="268.753882025019" stroke="#ced4da" stroke-width="1.5" stroke-dasharray="5,5"/>
<text x="400.0" y="-10.0" font-size="18" font-weight="bold" fill="#343a40" text-anchor="middle" dominant-baseline="central" transform="rotate(0 400.0 -10.0)">Individual</text>
<text x="770.9120413551099" y="259.4833721937705" font-size="18" font-weight="bold" fill="#343a40" text-anchor="middle" dominant-baseline="central" transform="rotate(72 770.9120413551099 259.4833721937705)">Technical</text>
<text x="629.2362483940645" y="695.5166278062295" font-size="18" font-weight="bold" fill="#343a40" text-anchor="middle" dominant-baseline="central" transform="rotate(324 629.2362483940645 695.5166278062295)">Economic</text>
<text x="170.7637516059355" y="695.5166278062295" font-size="18" font-weight="bold" fill="#343a40" text-anchor="middle" dominant-baseline="central" transform="rotate(396 170.7637516059355 695.5166278062295)">Environmental</text>
<text x="29.08795864489008" y="259.48337219377055" font-size="18" font-weight="bold" fill="#343a40" text-anchor="middle" dominant-baseline="central" transform="rotate(288 29.08795864489008 259.48337219377055)">Social</text>
<text x="484.94678440936946" y="318.28254850929034" font-size="14" font-weight="bold" fill="#adb5bd" transform="rotate(15 484.94678440936946 318.28254850929034)">immediate</text>
<text x="582.0288237343632" y="247.74831823419353" font-size="14" font-weight="bold" fill="#adb5bd" transform="rotate(15 582.0288237343632 247.74831823419353)">enabling</text>
<text x="679.1108630593569" y="177.21408795909676" font-size="14" font-weight="bold" fill="#adb5bd" transform="rotate(15 679.1108630593569 177.21408795909676)">structural</text>
<ellipse cx="400" cy="380" rx="50" ry="25" fill="white" stroke="#6c757d" stroke-width="1.5"/>
<text x="400" y="376" font-size="14" font-weight="bold" fill="#212529" text-anchor="middle">Bridge</text>
<text x="400" y="392" font-size="14" font-weight="bold" fill="#212529" text-anchor="middle">Assault</text>
<path d="M 420.5724838302366 408.31559480312313 Q 417.03927413669936 417.06296179333765 423.51141009169896 412.3606797749979" fill="none" stroke="#4dabf7" stroke-width="2" marker-end="url(#arrow)"/>
<path d="M 440.41844095980895 410.3501190272706 Q 350.0950022267002 336.4675258300173 407.5478619698159 239.28141774025738" fill="none" stroke="#4dabf7" stroke-width="2" marker-end="url(#arrow)"/>
<path d="M 366.531458053008 210.23995605178263 Q 274.8005028932301 300.7108418214671 152.9328073365876 275.59209477119276" fill="none" stroke="#4dabf7" stroke-width="2" marker-end="url(#arrow)"/>
<path d="M 467.5953040136344 473.036954353119 Q 476.4120827980215 485.1722092687432 482.28993532094626 493.2623792124927" fill="none" stroke="#4dabf7" stroke-width="2" marker-end="url(#arrow)"/>
<path d="M 526.8590694733515 497.666445147772 Q 643.2247816105905 442.36210223268336 661.250984533453 319.2453175043371" fill="none" stroke="#4dabf7" stroke-width="2" marker-end="url(#arrow)"/>
<rect x="389.02282018339787" y="430.7213595499958" width="116" height="28" fill="white" fill-opacity="0.85" rx="4"/>
<text x="447.02282018339787" y="458.7213595499958" font-size="14" fill="#212529" text-anchor="middle">Free to play</text>
<rect x="322.0" y="177.0" width="156" height="46" fill="white" fill-opacity="0.85" rx="4"/>
<text x="400.0" y="205.0" font-size="14" fill="#212529" text-anchor="middle">Max accessibility</text>
<text x="400.0" y="223.0" font-size="14" fill="#212529" text-anchor="middle">(no paywall)</text>
<rect x="40.68304511145391" y="264.2949016875158" width="148" height="46" fill="white" fill-opacity="0.85" rx="4"/>
<text x="114.68304511145391" y="292.2949016875158" font-size="14" fill="#212529" text-anchor="middle">Inclusive global</text>
<text x="114.68304511145391" y="310.2949016875158" font-size="14" fill="#212529" text-anchor="middle">audience</text>
<rect x="443.80134541264516" y="502.6230589874906" width="124" height="46" fill="white" fill-opacity="0.85" rx="4"/>
<text x="505.80134541264516" y="530.6230589874906" font-size="14" fill="#212529" text-anchor="middle">No revenue to</text>
<text x="505.80134541264516" y="548.6230589874906" font-size="14" fill="#212529" text-anchor="middle">fund servers</text>
<rect x="603.316954888546" y="264.2949016875158" width="164" height="46" fill="white" fill-opacity="0.85" rx="4"/>
<text x="685.316954888546" y="292.2949016875158" font-size="14" fill="#212529" text-anchor="middle">Maintenance burden</text>
<text x="685.316954888546" y="310.2949016875158" font-size="14" fill="#212529" text-anchor="middle">falls to team</text>
<text x="400" y="780" font-size="18" font-style="italic" fill="#495057" text-anchor="middle">Example of SusAD for one chain-of-effects in Bridge Assault</text>
</svg>